<mxfile host="app.diagrams.net" modified="2020-10-28T20:25:54.455Z" agent="5.0 (Windows)" etag="hWNaitxyJrl0mgTc0lk7" version="13.8.6" type="github">
  <diagram id="R2lEEEUBdFMjLlhIrx00" name="Page-1">
    <mxGraphModel dx="2166" dy="640" grid="1" gridSize="10" guides="1" tooltips="1" connect="1" arrows="1" fold="1" page="1" pageScale="1" pageWidth="850" pageHeight="1100" math="0" shadow="0" extFonts="Permanent Marker^https://fonts.googleapis.com/css?family=Permanent+Marker">
      <root>
        <mxCell id="0" />
        <mxCell id="1" parent="0" />
        <mxCell id="vh04Lum93Sa9Isq8TbCe-39" style="edgeStyle=orthogonalEdgeStyle;rounded=0;orthogonalLoop=1;jettySize=auto;html=1;entryX=0.5;entryY=0;entryDx=0;entryDy=0;endArrow=none;endFill=0;" edge="1" parent="1" source="vh04Lum93Sa9Isq8TbCe-21" target="vh04Lum93Sa9Isq8TbCe-32">
          <mxGeometry relative="1" as="geometry" />
        </mxCell>
        <mxCell id="vh04Lum93Sa9Isq8TbCe-44" style="edgeStyle=orthogonalEdgeStyle;rounded=0;orthogonalLoop=1;jettySize=auto;html=1;endArrow=none;endFill=0;exitX=0;exitY=0.5;exitDx=0;exitDy=0;" edge="1" parent="1" source="vh04Lum93Sa9Isq8TbCe-21" target="vh04Lum93Sa9Isq8TbCe-43">
          <mxGeometry relative="1" as="geometry" />
        </mxCell>
        <mxCell id="vh04Lum93Sa9Isq8TbCe-55" style="edgeStyle=orthogonalEdgeStyle;rounded=0;orthogonalLoop=1;jettySize=auto;html=1;entryX=0.5;entryY=0;entryDx=0;entryDy=0;endArrow=none;endFill=0;" edge="1" parent="1" source="vh04Lum93Sa9Isq8TbCe-21" target="vh04Lum93Sa9Isq8TbCe-54">
          <mxGeometry relative="1" as="geometry" />
        </mxCell>
        <mxCell id="vh04Lum93Sa9Isq8TbCe-21" value="Usuarios" style="whiteSpace=wrap;html=1;align=center;" vertex="1" parent="1">
          <mxGeometry x="320" y="240" width="80" height="40" as="geometry" />
        </mxCell>
        <mxCell id="vh04Lum93Sa9Isq8TbCe-24" value="id_User" style="shape=partialRectangle;fillColor=none;align=left;verticalAlign=middle;strokeColor=none;spacingLeft=34;rotatable=0;points=[[0,0.5],[1,0.5]];portConstraint=eastwest;dropTarget=0;fontStyle=5" vertex="1" parent="1">
          <mxGeometry x="290" y="210" width="90" height="30" as="geometry" />
        </mxCell>
        <mxCell id="vh04Lum93Sa9Isq8TbCe-25" value="" style="shape=partialRectangle;top=0;left=0;bottom=0;fillColor=none;stokeWidth=1;dashed=1;align=left;verticalAlign=middle;spacingLeft=4;spacingRight=4;overflow=hidden;rotatable=0;points=[];portConstraint=eastwest;part=1;" vertex="1" connectable="0" parent="vh04Lum93Sa9Isq8TbCe-24">
          <mxGeometry width="30" height="30" as="geometry" />
        </mxCell>
        <mxCell id="vh04Lum93Sa9Isq8TbCe-26" value="Nombre_Completo" style="shape=partialRectangle;fillColor=none;align=left;verticalAlign=middle;strokeColor=none;spacingLeft=34;rotatable=0;points=[[0,0.5],[1,0.5]];portConstraint=eastwest;dropTarget=0;" vertex="1" parent="1">
          <mxGeometry x="290" y="180" width="90" height="30" as="geometry" />
        </mxCell>
        <mxCell id="vh04Lum93Sa9Isq8TbCe-27" value="" style="shape=partialRectangle;top=0;left=0;bottom=0;fillColor=none;stokeWidth=1;dashed=1;align=left;verticalAlign=middle;spacingLeft=4;spacingRight=4;overflow=hidden;rotatable=0;points=[];portConstraint=eastwest;part=1;" vertex="1" connectable="0" parent="vh04Lum93Sa9Isq8TbCe-26">
          <mxGeometry width="30" height="30" as="geometry" />
        </mxCell>
        <mxCell id="vh04Lum93Sa9Isq8TbCe-28" value="email_User" style="shape=partialRectangle;fillColor=none;align=left;verticalAlign=middle;strokeColor=none;spacingLeft=34;rotatable=0;points=[[0,0.5],[1,0.5]];portConstraint=eastwest;dropTarget=0;" vertex="1" parent="1">
          <mxGeometry x="290" y="150" width="90" height="30" as="geometry" />
        </mxCell>
        <mxCell id="vh04Lum93Sa9Isq8TbCe-29" value="" style="shape=partialRectangle;top=0;left=0;bottom=0;fillColor=none;stokeWidth=1;dashed=1;align=left;verticalAlign=middle;spacingLeft=4;spacingRight=4;overflow=hidden;rotatable=0;points=[];portConstraint=eastwest;part=1;" vertex="1" connectable="0" parent="vh04Lum93Sa9Isq8TbCe-28">
          <mxGeometry width="30" height="30" as="geometry" />
        </mxCell>
        <mxCell id="vh04Lum93Sa9Isq8TbCe-30" value="contraseÃ±a" style="shape=partialRectangle;fillColor=none;align=left;verticalAlign=middle;strokeColor=none;spacingLeft=34;rotatable=0;points=[[0,0.5],[1,0.5]];portConstraint=eastwest;dropTarget=0;" vertex="1" parent="1">
          <mxGeometry x="290" y="120" width="90" height="30" as="geometry" />
        </mxCell>
        <mxCell id="vh04Lum93Sa9Isq8TbCe-31" value="" style="shape=partialRectangle;top=0;left=0;bottom=0;fillColor=none;stokeWidth=1;dashed=1;align=left;verticalAlign=middle;spacingLeft=4;spacingRight=4;overflow=hidden;rotatable=0;points=[];portConstraint=eastwest;part=1;" vertex="1" connectable="0" parent="vh04Lum93Sa9Isq8TbCe-30">
          <mxGeometry width="30" height="30" as="geometry" />
        </mxCell>
        <mxCell id="vh04Lum93Sa9Isq8TbCe-40" style="edgeStyle=orthogonalEdgeStyle;rounded=0;orthogonalLoop=1;jettySize=auto;html=1;entryX=0.75;entryY=1;entryDx=0;entryDy=0;endArrow=none;endFill=0;" edge="1" parent="1" source="vh04Lum93Sa9Isq8TbCe-32" target="vh04Lum93Sa9Isq8TbCe-21">
          <mxGeometry relative="1" as="geometry" />
        </mxCell>
        <mxCell id="vh04Lum93Sa9Isq8TbCe-32" value="contiene" style="shape=rhombus;perimeter=rhombusPerimeter;whiteSpace=wrap;html=1;align=center;" vertex="1" parent="1">
          <mxGeometry x="440" y="280" width="70" height="50" as="geometry" />
        </mxCell>
        <mxCell id="vh04Lum93Sa9Isq8TbCe-49" style="edgeStyle=orthogonalEdgeStyle;rounded=0;orthogonalLoop=1;jettySize=auto;html=1;endArrow=none;endFill=0;" edge="1" parent="1" source="vh04Lum93Sa9Isq8TbCe-43">
          <mxGeometry relative="1" as="geometry">
            <mxPoint x="310" y="429" as="targetPoint" />
          </mxGeometry>
        </mxCell>
        <mxCell id="vh04Lum93Sa9Isq8TbCe-43" value="tiene" style="shape=rhombus;perimeter=rhombusPerimeter;whiteSpace=wrap;html=1;align=center;" vertex="1" parent="1">
          <mxGeometry x="260" y="320" width="70" height="50" as="geometry" />
        </mxCell>
        <mxCell id="vh04Lum93Sa9Isq8TbCe-59" style="edgeStyle=orthogonalEdgeStyle;rounded=0;orthogonalLoop=1;jettySize=auto;html=1;entryX=0;entryY=0.5;entryDx=0;entryDy=0;endArrow=none;endFill=0;" edge="1" parent="1" source="vh04Lum93Sa9Isq8TbCe-46" target="vh04Lum93Sa9Isq8TbCe-58">
          <mxGeometry relative="1" as="geometry" />
        </mxCell>
        <mxCell id="vh04Lum93Sa9Isq8TbCe-74" style="edgeStyle=orthogonalEdgeStyle;rounded=0;orthogonalLoop=1;jettySize=auto;html=1;entryX=0.5;entryY=0;entryDx=0;entryDy=0;endArrow=none;endFill=0;" edge="1" parent="1" source="vh04Lum93Sa9Isq8TbCe-46" target="vh04Lum93Sa9Isq8TbCe-73">
          <mxGeometry relative="1" as="geometry" />
        </mxCell>
        <mxCell id="vh04Lum93Sa9Isq8TbCe-46" value="Eventos" style="whiteSpace=wrap;html=1;align=center;" vertex="1" parent="1">
          <mxGeometry x="150" y="430" width="170" height="40" as="geometry" />
        </mxCell>
        <mxCell id="vh04Lum93Sa9Isq8TbCe-50" value="id_Evento" style="shape=partialRectangle;fillColor=none;align=left;verticalAlign=middle;strokeColor=none;spacingLeft=34;rotatable=0;points=[[0,0.5],[1,0.5]];portConstraint=eastwest;dropTarget=0;fontStyle=5" vertex="1" parent="1">
          <mxGeometry x="121" y="400" width="90" height="30" as="geometry" />
        </mxCell>
        <mxCell id="vh04Lum93Sa9Isq8TbCe-51" value="" style="shape=partialRectangle;top=0;left=0;bottom=0;fillColor=none;stokeWidth=1;dashed=1;align=left;verticalAlign=middle;spacingLeft=4;spacingRight=4;overflow=hidden;rotatable=0;points=[];portConstraint=eastwest;part=1;" vertex="1" connectable="0" parent="vh04Lum93Sa9Isq8TbCe-50">
          <mxGeometry width="30" height="30" as="geometry" />
        </mxCell>
        <mxCell id="vh04Lum93Sa9Isq8TbCe-52" value="Titulo" style="shape=partialRectangle;fillColor=none;align=left;verticalAlign=middle;strokeColor=none;spacingLeft=34;rotatable=0;points=[[0,0.5],[1,0.5]];portConstraint=eastwest;dropTarget=0;" vertex="1" parent="1">
          <mxGeometry x="121" y="370" width="90" height="30" as="geometry" />
        </mxCell>
        <mxCell id="vh04Lum93Sa9Isq8TbCe-53" value="" style="shape=partialRectangle;top=0;left=0;bottom=0;fillColor=none;stokeWidth=1;dashed=1;align=left;verticalAlign=middle;spacingLeft=4;spacingRight=4;overflow=hidden;rotatable=0;points=[];portConstraint=eastwest;part=1;" vertex="1" connectable="0" parent="vh04Lum93Sa9Isq8TbCe-52">
          <mxGeometry width="30" height="30" as="geometry" />
        </mxCell>
        <mxCell id="vh04Lum93Sa9Isq8TbCe-56" style="edgeStyle=orthogonalEdgeStyle;rounded=0;orthogonalLoop=1;jettySize=auto;html=1;endArrow=none;endFill=0;entryX=0.25;entryY=0;entryDx=0;entryDy=0;exitX=0.5;exitY=1;exitDx=0;exitDy=0;" edge="1" parent="1" source="vh04Lum93Sa9Isq8TbCe-54" target="vh04Lum93Sa9Isq8TbCe-57">
          <mxGeometry relative="1" as="geometry">
            <mxPoint x="480" y="405" as="targetPoint" />
          </mxGeometry>
        </mxCell>
        <mxCell id="vh04Lum93Sa9Isq8TbCe-54" value="&lt;div&gt;tiene&lt;/div&gt;" style="shape=rhombus;perimeter=rhombusPerimeter;whiteSpace=wrap;html=1;align=center;" vertex="1" parent="1">
          <mxGeometry x="400" y="350" width="70" height="50" as="geometry" />
        </mxCell>
        <mxCell id="vh04Lum93Sa9Isq8TbCe-57" value="tareas" style="whiteSpace=wrap;html=1;align=center;" vertex="1" parent="1">
          <mxGeometry x="430" y="430" width="150" height="40" as="geometry" />
        </mxCell>
        <mxCell id="vh04Lum93Sa9Isq8TbCe-60" style="edgeStyle=orthogonalEdgeStyle;rounded=0;orthogonalLoop=1;jettySize=auto;html=1;entryX=0;entryY=0.5;entryDx=0;entryDy=0;endArrow=none;endFill=0;" edge="1" parent="1" source="vh04Lum93Sa9Isq8TbCe-58" target="vh04Lum93Sa9Isq8TbCe-57">
          <mxGeometry relative="1" as="geometry" />
        </mxCell>
        <mxCell id="vh04Lum93Sa9Isq8TbCe-58" value="contiene" style="shape=rhombus;perimeter=rhombusPerimeter;whiteSpace=wrap;html=1;align=center;" vertex="1" parent="1">
          <mxGeometry x="340" y="425" width="60" height="50" as="geometry" />
        </mxCell>
        <mxCell id="vh04Lum93Sa9Isq8TbCe-90" style="edgeStyle=orthogonalEdgeStyle;rounded=0;orthogonalLoop=1;jettySize=auto;html=1;entryX=0.5;entryY=1;entryDx=0;entryDy=0;endArrow=none;endFill=0;" edge="1" parent="1" source="vh04Lum93Sa9Isq8TbCe-61" target="vh04Lum93Sa9Isq8TbCe-73">
          <mxGeometry relative="1" as="geometry" />
        </mxCell>
        <mxCell id="vh04Lum93Sa9Isq8TbCe-61" value="EvSociales" style="whiteSpace=wrap;html=1;align=center;" vertex="1" parent="1">
          <mxGeometry x="-57.5" y="650" width="80" height="30" as="geometry" />
        </mxCell>
        <mxCell id="vh04Lum93Sa9Isq8TbCe-88" style="edgeStyle=orthogonalEdgeStyle;rounded=0;orthogonalLoop=1;jettySize=auto;html=1;endArrow=none;endFill=0;" edge="1" parent="1" source="vh04Lum93Sa9Isq8TbCe-62">
          <mxGeometry relative="1" as="geometry">
            <mxPoint x="260" y="550" as="targetPoint" />
          </mxGeometry>
        </mxCell>
        <mxCell id="vh04Lum93Sa9Isq8TbCe-62" value="EvCorporativos" style="whiteSpace=wrap;html=1;align=center;" vertex="1" parent="1">
          <mxGeometry x="-17.5" y="720" width="90" height="30" as="geometry" />
        </mxCell>
        <mxCell id="vh04Lum93Sa9Isq8TbCe-86" style="edgeStyle=orthogonalEdgeStyle;rounded=0;orthogonalLoop=1;jettySize=auto;html=1;endArrow=none;endFill=0;" edge="1" parent="1" source="vh04Lum93Sa9Isq8TbCe-63">
          <mxGeometry relative="1" as="geometry">
            <mxPoint x="260" y="550" as="targetPoint" />
          </mxGeometry>
        </mxCell>
        <mxCell id="vh04Lum93Sa9Isq8TbCe-63" value="EvComunitarios" style="whiteSpace=wrap;html=1;align=center;" vertex="1" parent="1">
          <mxGeometry x="52.5" y="790" width="90" height="30" as="geometry" />
        </mxCell>
        <mxCell id="vh04Lum93Sa9Isq8TbCe-91" style="edgeStyle=orthogonalEdgeStyle;rounded=0;orthogonalLoop=1;jettySize=auto;html=1;endArrow=none;endFill=0;" edge="1" parent="1" source="vh04Lum93Sa9Isq8TbCe-64">
          <mxGeometry relative="1" as="geometry">
            <mxPoint x="260" y="550" as="targetPoint" />
          </mxGeometry>
        </mxCell>
        <mxCell id="vh04Lum93Sa9Isq8TbCe-64" value="EvAcademicos" style="whiteSpace=wrap;html=1;align=center;" vertex="1" parent="1">
          <mxGeometry x="147.5" y="840" width="90" height="30" as="geometry" />
        </mxCell>
        <mxCell id="vh04Lum93Sa9Isq8TbCe-92" style="edgeStyle=orthogonalEdgeStyle;rounded=0;orthogonalLoop=1;jettySize=auto;html=1;entryX=0.5;entryY=1;entryDx=0;entryDy=0;endArrow=none;endFill=0;" edge="1" parent="1" source="vh04Lum93Sa9Isq8TbCe-65" target="vh04Lum93Sa9Isq8TbCe-73">
          <mxGeometry relative="1" as="geometry">
            <Array as="points">
              <mxPoint x="302" y="820" />
              <mxPoint x="260" y="820" />
            </Array>
          </mxGeometry>
        </mxCell>
        <mxCell id="vh04Lum93Sa9Isq8TbCe-65" value="EvCulturalesOcio" style="whiteSpace=wrap;html=1;align=center;" vertex="1" parent="1">
          <mxGeometry x="252.5" y="880" width="100" height="30" as="geometry" />
        </mxCell>
        <mxCell id="vh04Lum93Sa9Isq8TbCe-93" style="edgeStyle=orthogonalEdgeStyle;rounded=0;orthogonalLoop=1;jettySize=auto;html=1;endArrow=none;endFill=0;" edge="1" parent="1" source="vh04Lum93Sa9Isq8TbCe-66">
          <mxGeometry relative="1" as="geometry">
            <mxPoint x="260" y="550" as="targetPoint" />
            <Array as="points">
              <mxPoint x="320" y="845" />
              <mxPoint x="320" y="800" />
              <mxPoint x="260" y="800" />
            </Array>
          </mxGeometry>
        </mxCell>
        <mxCell id="vh04Lum93Sa9Isq8TbCe-66" value="EvDeportivos" style="whiteSpace=wrap;html=1;align=center;" vertex="1" parent="1">
          <mxGeometry x="362.5" y="830" width="100" height="30" as="geometry" />
        </mxCell>
        <mxCell id="vh04Lum93Sa9Isq8TbCe-94" style="edgeStyle=orthogonalEdgeStyle;rounded=0;orthogonalLoop=1;jettySize=auto;html=1;entryX=0.5;entryY=1;entryDx=0;entryDy=0;endArrow=none;endFill=0;" edge="1" parent="1" source="vh04Lum93Sa9Isq8TbCe-67" target="vh04Lum93Sa9Isq8TbCe-73">
          <mxGeometry relative="1" as="geometry" />
        </mxCell>
        <mxCell id="vh04Lum93Sa9Isq8TbCe-67" value="EvPoliticos" style="whiteSpace=wrap;html=1;align=center;" vertex="1" parent="1">
          <mxGeometry x="422.5" y="760" width="100" height="30" as="geometry" />
        </mxCell>
        <mxCell id="vh04Lum93Sa9Isq8TbCe-95" style="edgeStyle=orthogonalEdgeStyle;rounded=0;orthogonalLoop=1;jettySize=auto;html=1;entryX=0.5;entryY=1;entryDx=0;entryDy=0;endArrow=none;endFill=0;" edge="1" parent="1" source="vh04Lum93Sa9Isq8TbCe-72" target="vh04Lum93Sa9Isq8TbCe-73">
          <mxGeometry relative="1" as="geometry" />
        </mxCell>
        <mxCell id="vh04Lum93Sa9Isq8TbCe-72" value="EvEducativos" style="whiteSpace=wrap;html=1;align=center;" vertex="1" parent="1">
          <mxGeometry x="477.5" y="710" width="100" height="30" as="geometry" />
        </mxCell>
        <mxCell id="vh04Lum93Sa9Isq8TbCe-73" value="es" style="shape=rhombus;perimeter=rhombusPerimeter;whiteSpace=wrap;html=1;align=center;" vertex="1" parent="1">
          <mxGeometry x="225" y="510" width="70" height="40" as="geometry" />
        </mxCell>
        <mxCell id="vh04Lum93Sa9Isq8TbCe-98" value="" style="shape=stencil(lZPdTsMwDIWfJrdWHOfHvh7jPSat0Apop67A9vakRIW5rJG4S53z1c6xbWh3bg+nxjh7nsbhpfnsjlNr6ME41/VtM3ZTPhnaG9o9DWPzPA7v/bF8nw6zcj69DR/zHy6Fs2DtDDl7LQECK9+BxyJ/7fobOULwSo4IRNv6CIGV3gnYih49iE7geUl5F8gPwKCAECHFCsCQdEnJQqwAxEBOAewB0zaQK0ZRgBCw2wZCAkYNCESsuBoh6gxofxp5l0jZV/efmhiBSb+awFcycFpMWYAowLwNCILVrQ4BpAYQiLbJ5+Gr2CRpnSFPd61z2XbSQAQJlWm1f9Zn3YZ8+F29srW3d+s1zaGy4rT/Ag==);fillColor=none;" vertex="1" parent="1">
          <mxGeometry x="165.17647058823513" y="568.2352941176471" width="178.82352941176472" height="38.088235294117645" as="geometry" />
        </mxCell>
        <mxCell id="vh04Lum93Sa9Isq8TbCe-101" value="fecha" style="shape=partialRectangle;fillColor=none;align=left;verticalAlign=middle;strokeColor=none;spacingLeft=34;rotatable=0;points=[[0,0.5],[1,0.5]];portConstraint=eastwest;dropTarget=0;" vertex="1" parent="1">
          <mxGeometry x="121" y="340" width="90" height="30" as="geometry" />
        </mxCell>
        <mxCell id="vh04Lum93Sa9Isq8TbCe-102" value="" style="shape=partialRectangle;top=0;left=0;bottom=0;fillColor=none;stokeWidth=1;dashed=1;align=left;verticalAlign=middle;spacingLeft=4;spacingRight=4;overflow=hidden;rotatable=0;points=[];portConstraint=eastwest;part=1;" vertex="1" connectable="0" parent="vh04Lum93Sa9Isq8TbCe-101">
          <mxGeometry width="30" height="30" as="geometry" />
        </mxCell>
        <mxCell id="vh04Lum93Sa9Isq8TbCe-103" value="fecha_Recordatorio" style="shape=partialRectangle;fillColor=none;align=left;verticalAlign=middle;strokeColor=none;spacingLeft=34;rotatable=0;points=[[0,0.5],[1,0.5]];portConstraint=eastwest;dropTarget=0;" vertex="1" parent="1">
          <mxGeometry x="121" y="309" width="90" height="30" as="geometry" />
        </mxCell>
        <mxCell id="vh04Lum93Sa9Isq8TbCe-104" value="" style="shape=partialRectangle;top=0;left=0;bottom=0;fillColor=none;stokeWidth=1;dashed=1;align=left;verticalAlign=middle;spacingLeft=4;spacingRight=4;overflow=hidden;rotatable=0;points=[];portConstraint=eastwest;part=1;" vertex="1" connectable="0" parent="vh04Lum93Sa9Isq8TbCe-103">
          <mxGeometry width="30" height="30" as="geometry" />
        </mxCell>
        <mxCell id="vh04Lum93Sa9Isq8TbCe-105" value="recordatorio" style="shape=partialRectangle;fillColor=none;align=left;verticalAlign=middle;strokeColor=none;spacingLeft=34;rotatable=0;points=[[0,0.5],[1,0.5]];portConstraint=eastwest;dropTarget=0;" vertex="1" parent="1">
          <mxGeometry x="121" y="279" width="90" height="30" as="geometry" />
        </mxCell>
        <mxCell id="vh04Lum93Sa9Isq8TbCe-106" value="" style="shape=partialRectangle;top=0;left=0;bottom=0;fillColor=none;stokeWidth=1;dashed=1;align=left;verticalAlign=middle;spacingLeft=4;spacingRight=4;overflow=hidden;rotatable=0;points=[];portConstraint=eastwest;part=1;" vertex="1" connectable="0" parent="vh04Lum93Sa9Isq8TbCe-105">
          <mxGeometry width="30" height="30" as="geometry" />
        </mxCell>
        <mxCell id="vh04Lum93Sa9Isq8TbCe-107" value="DescripciÃ³n" style="shape=partialRectangle;fillColor=none;align=left;verticalAlign=middle;strokeColor=none;spacingLeft=34;rotatable=0;points=[[0,0.5],[1,0.5]];portConstraint=eastwest;dropTarget=0;" vertex="1" parent="1">
          <mxGeometry x="121" y="247" width="90" height="30" as="geometry" />
        </mxCell>
        <mxCell id="vh04Lum93Sa9Isq8TbCe-108" value="" style="shape=partialRectangle;top=0;left=0;bottom=0;fillColor=none;stokeWidth=1;dashed=1;align=left;verticalAlign=middle;spacingLeft=4;spacingRight=4;overflow=hidden;rotatable=0;points=[];portConstraint=eastwest;part=1;" vertex="1" connectable="0" parent="vh04Lum93Sa9Isq8TbCe-107">
          <mxGeometry width="30" height="30" as="geometry" />
        </mxCell>
        <mxCell id="vh04Lum93Sa9Isq8TbCe-109" value="id_Tarea" style="shape=partialRectangle;fillColor=none;align=left;verticalAlign=middle;strokeColor=none;spacingLeft=34;rotatable=0;points=[[0,0.5],[1,0.5]];portConstraint=eastwest;dropTarget=0;" vertex="1" parent="1">
          <mxGeometry x="522.5" y="400" width="90" height="30" as="geometry" />
        </mxCell>
        <mxCell id="vh04Lum93Sa9Isq8TbCe-110" value="" style="shape=partialRectangle;top=0;left=0;bottom=0;fillColor=none;stokeWidth=1;dashed=1;align=left;verticalAlign=middle;spacingLeft=4;spacingRight=4;overflow=hidden;rotatable=0;points=[];portConstraint=eastwest;part=1;" vertex="1" connectable="0" parent="vh04Lum93Sa9Isq8TbCe-109">
          <mxGeometry width="30" height="30" as="geometry" />
        </mxCell>
        <mxCell id="vh04Lum93Sa9Isq8TbCe-111" value="Tareas" style="shape=partialRectangle;fillColor=none;align=left;verticalAlign=middle;strokeColor=none;spacingLeft=34;rotatable=0;points=[[0,0.5],[1,0.5]];portConstraint=eastwest;dropTarget=0;" vertex="1" parent="1">
          <mxGeometry x="522.5" y="370" width="90" height="30" as="geometry" />
        </mxCell>
        <mxCell id="vh04Lum93Sa9Isq8TbCe-112" value="" style="shape=partialRectangle;top=0;left=0;bottom=0;fillColor=none;stokeWidth=1;dashed=1;align=left;verticalAlign=middle;spacingLeft=4;spacingRight=4;overflow=hidden;rotatable=0;points=[];portConstraint=eastwest;part=1;" vertex="1" connectable="0" parent="vh04Lum93Sa9Isq8TbCe-111">
          <mxGeometry width="30" height="30" as="geometry" />
        </mxCell>
        <mxCell id="vh04Lum93Sa9Isq8TbCe-113" value="fecha" style="shape=partialRectangle;fillColor=none;align=left;verticalAlign=middle;strokeColor=none;spacingLeft=34;rotatable=0;points=[[0,0.5],[1,0.5]];portConstraint=eastwest;dropTarget=0;" vertex="1" parent="1">
          <mxGeometry x="522.5" y="340" width="90" height="30" as="geometry" />
        </mxCell>
        <mxCell id="vh04Lum93Sa9Isq8TbCe-114" value="" style="shape=partialRectangle;top=0;left=0;bottom=0;fillColor=none;stokeWidth=1;dashed=1;align=left;verticalAlign=middle;spacingLeft=4;spacingRight=4;overflow=hidden;rotatable=0;points=[];portConstraint=eastwest;part=1;" vertex="1" connectable="0" parent="vh04Lum93Sa9Isq8TbCe-113">
          <mxGeometry width="30" height="30" as="geometry" />
        </mxCell>
        <mxCell id="vh04Lum93Sa9Isq8TbCe-115" value="fecha_Recordatorio" style="shape=partialRectangle;fillColor=none;align=left;verticalAlign=middle;strokeColor=none;spacingLeft=34;rotatable=0;points=[[0,0.5],[1,0.5]];portConstraint=eastwest;dropTarget=0;" vertex="1" parent="1">
          <mxGeometry x="522.5" y="309" width="90" height="30" as="geometry" />
        </mxCell>
        <mxCell id="vh04Lum93Sa9Isq8TbCe-116" value="" style="shape=partialRectangle;top=0;left=0;bottom=0;fillColor=none;stokeWidth=1;dashed=1;align=left;verticalAlign=middle;spacingLeft=4;spacingRight=4;overflow=hidden;rotatable=0;points=[];portConstraint=eastwest;part=1;" vertex="1" connectable="0" parent="vh04Lum93Sa9Isq8TbCe-115">
          <mxGeometry width="30" height="30" as="geometry" />
        </mxCell>
        <mxCell id="vh04Lum93Sa9Isq8TbCe-117" value="recordatorio" style="shape=partialRectangle;fillColor=none;align=left;verticalAlign=middle;strokeColor=none;spacingLeft=34;rotatable=0;points=[[0,0.5],[1,0.5]];portConstraint=eastwest;dropTarget=0;" vertex="1" parent="1">
          <mxGeometry x="522.5" y="279" width="90" height="30" as="geometry" />
        </mxCell>
        <mxCell id="vh04Lum93Sa9Isq8TbCe-118" value="" style="shape=partialRectangle;top=0;left=0;bottom=0;fillColor=none;stokeWidth=1;dashed=1;align=left;verticalAlign=middle;spacingLeft=4;spacingRight=4;overflow=hidden;rotatable=0;points=[];portConstraint=eastwest;part=1;" vertex="1" connectable="0" parent="vh04Lum93Sa9Isq8TbCe-117">
          <mxGeometry width="30" height="30" as="geometry" />
        </mxCell>
      </root>
    </mxGraphModel>
  </diagram>
</mxfile>
